<mxfile host="app.diagrams.net" modified="2022-11-21T10:09:41.520Z" agent="5.0 (Macintosh)" etag="-pEbsquR8daarqmUjdKN" version="20.5.3" type="github" pages="2">
  <diagram id="KvTSBWndc6eD5BLYHtSI" name="第 1 页">
    <mxGraphModel dx="1186" dy="688" grid="1" gridSize="10" guides="1" tooltips="1" connect="1" arrows="1" fold="1" page="1" pageScale="1" pageWidth="827" pageHeight="1169" math="0" shadow="1">
      <root>
        <mxCell id="0" />
        <mxCell id="1" parent="0" />
        <mxCell id="DO_eTJAPRYyBR4aNDUrh-20" value="" style="rounded=0;whiteSpace=wrap;html=1;fillColor=none;" parent="1" vertex="1">
          <mxGeometry x="10" y="50" width="650" height="440" as="geometry" />
        </mxCell>
        <mxCell id="DO_eTJAPRYyBR4aNDUrh-1" value="凯亚云平台" style="rounded=0;whiteSpace=wrap;html=1;fillColor=#f5f5f5;strokeColor=#666666;fontColor=#333333;" parent="1" vertex="1">
          <mxGeometry x="170" y="400" width="470" height="70" as="geometry" />
        </mxCell>
        <mxCell id="DO_eTJAPRYyBR4aNDUrh-2" value="" style="rounded=0;whiteSpace=wrap;html=1;fillColor=#f8cecc;strokeColor=#b85450;" parent="1" vertex="1">
          <mxGeometry x="170" y="320" width="470" height="60" as="geometry" />
        </mxCell>
        <mxCell id="DO_eTJAPRYyBR4aNDUrh-3" value="MySQL" style="rounded=0;whiteSpace=wrap;html=1;" parent="1" vertex="1">
          <mxGeometry x="230" y="330" width="110" height="40" as="geometry" />
        </mxCell>
        <mxCell id="DO_eTJAPRYyBR4aNDUrh-4" value="Redis" style="rounded=0;whiteSpace=wrap;html=1;" parent="1" vertex="1">
          <mxGeometry x="360" y="330" width="110" height="40" as="geometry" />
        </mxCell>
        <mxCell id="DO_eTJAPRYyBR4aNDUrh-5" value="" style="rounded=0;whiteSpace=wrap;html=1;fillColor=#d5e8d4;strokeColor=#82b366;" parent="1" vertex="1">
          <mxGeometry x="170" y="70" width="470" height="60" as="geometry" />
        </mxCell>
        <mxCell id="DO_eTJAPRYyBR4aNDUrh-6" value="ReactJS" style="rounded=0;whiteSpace=wrap;html=1;" parent="1" vertex="1">
          <mxGeometry x="200" y="80" width="110" height="40" as="geometry" />
        </mxCell>
        <mxCell id="DO_eTJAPRYyBR4aNDUrh-7" value="APP" style="rounded=0;whiteSpace=wrap;html=1;" parent="1" vertex="1">
          <mxGeometry x="340" y="80" width="110" height="40" as="geometry" />
        </mxCell>
        <mxCell id="DO_eTJAPRYyBR4aNDUrh-8" value="API" style="rounded=0;whiteSpace=wrap;html=1;" parent="1" vertex="1">
          <mxGeometry x="480" y="80" width="110" height="40" as="geometry" />
        </mxCell>
        <mxCell id="DO_eTJAPRYyBR4aNDUrh-9" value="" style="rounded=0;whiteSpace=wrap;html=1;fillColor=#dae8fc;strokeColor=#6c8ebf;" parent="1" vertex="1">
          <mxGeometry x="170" y="150" width="470" height="150" as="geometry" />
        </mxCell>
        <mxCell id="DO_eTJAPRYyBR4aNDUrh-10" value="SpringBoot" style="rounded=0;whiteSpace=wrap;html=1;" parent="1" vertex="1">
          <mxGeometry x="200" y="170" width="110" height="40" as="geometry" />
        </mxCell>
        <mxCell id="DO_eTJAPRYyBR4aNDUrh-11" value="SpringCore" style="rounded=0;whiteSpace=wrap;html=1;" parent="1" vertex="1">
          <mxGeometry x="340" y="170" width="110" height="40" as="geometry" />
        </mxCell>
        <mxCell id="DO_eTJAPRYyBR4aNDUrh-12" value="Mybatis" style="rounded=0;whiteSpace=wrap;html=1;" parent="1" vertex="1">
          <mxGeometry x="480" y="170" width="110" height="40" as="geometry" />
        </mxCell>
        <mxCell id="DO_eTJAPRYyBR4aNDUrh-13" value="JetCache" style="rounded=0;whiteSpace=wrap;html=1;" parent="1" vertex="1">
          <mxGeometry x="200" y="230" width="110" height="40" as="geometry" />
        </mxCell>
        <mxCell id="DO_eTJAPRYyBR4aNDUrh-14" value="OAuth2" style="rounded=0;whiteSpace=wrap;html=1;" parent="1" vertex="1">
          <mxGeometry x="340" y="230" width="110" height="40" as="geometry" />
        </mxCell>
        <mxCell id="DO_eTJAPRYyBR4aNDUrh-15" value="MinIO" style="rounded=0;whiteSpace=wrap;html=1;" parent="1" vertex="1">
          <mxGeometry x="490" y="330" width="110" height="40" as="geometry" />
        </mxCell>
        <mxCell id="DO_eTJAPRYyBR4aNDUrh-16" value="表现层" style="rounded=0;whiteSpace=wrap;html=1;fillColor=#d5e8d4;strokeColor=#82b366;" parent="1" vertex="1">
          <mxGeometry x="30" y="70" width="120" height="60" as="geometry" />
        </mxCell>
        <mxCell id="DO_eTJAPRYyBR4aNDUrh-17" value="服务层" style="rounded=0;whiteSpace=wrap;html=1;fillColor=#dae8fc;strokeColor=#6c8ebf;" parent="1" vertex="1">
          <mxGeometry x="30" y="150" width="120" height="150" as="geometry" />
        </mxCell>
        <mxCell id="DO_eTJAPRYyBR4aNDUrh-18" value="存储层" style="rounded=0;whiteSpace=wrap;html=1;fillColor=#f8cecc;strokeColor=#b85450;" parent="1" vertex="1">
          <mxGeometry x="30" y="320" width="120" height="60" as="geometry" />
        </mxCell>
        <mxCell id="DO_eTJAPRYyBR4aNDUrh-19" value="基础设施层" style="rounded=0;whiteSpace=wrap;html=1;fillColor=#f5f5f5;strokeColor=#666666;fontColor=#333333;" parent="1" vertex="1">
          <mxGeometry x="30" y="400" width="120" height="70" as="geometry" />
        </mxCell>
        <mxCell id="DO_eTJAPRYyBR4aNDUrh-21" value="Quartz" style="rounded=0;whiteSpace=wrap;html=1;" parent="1" vertex="1">
          <mxGeometry x="480" y="230" width="110" height="40" as="geometry" />
        </mxCell>
      </root>
    </mxGraphModel>
  </diagram>
  <diagram id="LFl4zzjRrHofn1ZWyhr0" name="餐补计算程序架构">
    <mxGraphModel dx="3149" dy="1577" grid="1" gridSize="10" guides="1" tooltips="1" connect="1" arrows="1" fold="1" page="1" pageScale="1" pageWidth="827" pageHeight="1169" math="0" shadow="0">
      <root>
        <mxCell id="0" />
        <mxCell id="1" parent="0" />
        <mxCell id="mx_iXF27oq-1so8VPrLC-8" style="edgeStyle=orthogonalEdgeStyle;rounded=0;orthogonalLoop=1;jettySize=auto;html=1;exitX=1;exitY=0.5;exitDx=0;exitDy=0;entryX=0.5;entryY=0;entryDx=0;entryDy=0;curved=1;sketch=0;shadow=1;" edge="1" parent="1" source="mx_iXF27oq-1so8VPrLC-1" target="mx_iXF27oq-1so8VPrLC-15">
          <mxGeometry relative="1" as="geometry" />
        </mxCell>
        <mxCell id="mx_iXF27oq-1so8VPrLC-1" value="部门信息" style="rounded=0;whiteSpace=wrap;html=1;sketch=0;shadow=1;" vertex="1" parent="1">
          <mxGeometry x="-1560" y="-840" width="120" height="60" as="geometry" />
        </mxCell>
        <mxCell id="mx_iXF27oq-1so8VPrLC-10" style="edgeStyle=orthogonalEdgeStyle;rounded=0;orthogonalLoop=1;jettySize=auto;html=1;exitX=1;exitY=0.5;exitDx=0;exitDy=0;entryX=0.5;entryY=1;entryDx=0;entryDy=0;curved=1;sketch=0;shadow=1;" edge="1" parent="1" source="mx_iXF27oq-1so8VPrLC-2" target="mx_iXF27oq-1so8VPrLC-15">
          <mxGeometry relative="1" as="geometry">
            <mxPoint x="-1277.5" y="-560" as="targetPoint" />
          </mxGeometry>
        </mxCell>
        <mxCell id="mx_iXF27oq-1so8VPrLC-2" value="考勤信息" style="rounded=0;whiteSpace=wrap;html=1;sketch=0;shadow=1;" vertex="1" parent="1">
          <mxGeometry x="-1560" y="-600" width="120" height="60" as="geometry" />
        </mxCell>
        <mxCell id="mx_iXF27oq-1so8VPrLC-9" style="edgeStyle=orthogonalEdgeStyle;rounded=0;orthogonalLoop=1;jettySize=auto;html=1;exitX=1;exitY=0.5;exitDx=0;exitDy=0;entryX=0;entryY=0.5;entryDx=0;entryDy=0;curved=1;sketch=0;shadow=1;" edge="1" parent="1" source="mx_iXF27oq-1so8VPrLC-3" target="mx_iXF27oq-1so8VPrLC-15">
          <mxGeometry relative="1" as="geometry" />
        </mxCell>
        <mxCell id="mx_iXF27oq-1so8VPrLC-3" value="员工信息" style="rounded=0;whiteSpace=wrap;html=1;sketch=0;shadow=1;" vertex="1" parent="1">
          <mxGeometry x="-1560" y="-720" width="120" height="60" as="geometry" />
        </mxCell>
        <mxCell id="mx_iXF27oq-1so8VPrLC-6" value="餐补信息" style="rounded=0;whiteSpace=wrap;html=1;sketch=0;shadow=1;" vertex="1" parent="1">
          <mxGeometry x="-1200" y="-740" width="120" height="60" as="geometry" />
        </mxCell>
        <mxCell id="mx_iXF27oq-1so8VPrLC-12" style="edgeStyle=orthogonalEdgeStyle;rounded=0;orthogonalLoop=1;jettySize=auto;html=1;exitX=1;exitY=0.5;exitDx=0;exitDy=0;entryX=0;entryY=0.5;entryDx=0;entryDy=0;curved=1;sketch=0;shadow=1;" edge="1" parent="1" source="mx_iXF27oq-1so8VPrLC-11" target="mx_iXF27oq-1so8VPrLC-1">
          <mxGeometry relative="1" as="geometry" />
        </mxCell>
        <mxCell id="mx_iXF27oq-1so8VPrLC-13" style="edgeStyle=orthogonalEdgeStyle;rounded=0;orthogonalLoop=1;jettySize=auto;html=1;exitX=1;exitY=0.5;exitDx=0;exitDy=0;entryX=0;entryY=0.5;entryDx=0;entryDy=0;curved=1;sketch=0;shadow=1;" edge="1" parent="1" source="mx_iXF27oq-1so8VPrLC-11" target="mx_iXF27oq-1so8VPrLC-3">
          <mxGeometry relative="1" as="geometry" />
        </mxCell>
        <mxCell id="mx_iXF27oq-1so8VPrLC-14" style="edgeStyle=orthogonalEdgeStyle;rounded=0;orthogonalLoop=1;jettySize=auto;html=1;exitX=1;exitY=0.5;exitDx=0;exitDy=0;entryX=0;entryY=0.5;entryDx=0;entryDy=0;curved=1;sketch=0;shadow=1;" edge="1" parent="1" source="mx_iXF27oq-1so8VPrLC-11" target="mx_iXF27oq-1so8VPrLC-2">
          <mxGeometry relative="1" as="geometry" />
        </mxCell>
        <mxCell id="mx_iXF27oq-1so8VPrLC-11" value="获取钉钉接口数据" style="rounded=0;whiteSpace=wrap;html=1;sketch=0;shadow=1;fillColor=#1ba1e2;strokeColor=#006EAF;fontColor=#ffffff;" vertex="1" parent="1">
          <mxGeometry x="-1850" y="-740" width="120" height="60" as="geometry" />
        </mxCell>
        <mxCell id="mx_iXF27oq-1so8VPrLC-17" style="edgeStyle=orthogonalEdgeStyle;rounded=0;orthogonalLoop=1;jettySize=auto;html=1;exitX=1;exitY=0.5;exitDx=0;exitDy=0;entryX=0;entryY=0.5;entryDx=0;entryDy=0;curved=1;sketch=0;shadow=1;" edge="1" parent="1" source="mx_iXF27oq-1so8VPrLC-15" target="mx_iXF27oq-1so8VPrLC-6">
          <mxGeometry relative="1" as="geometry" />
        </mxCell>
        <mxCell id="mx_iXF27oq-1so8VPrLC-20" style="edgeStyle=orthogonalEdgeStyle;curved=1;rounded=0;sketch=0;orthogonalLoop=1;jettySize=auto;html=1;exitX=1;exitY=0.5;exitDx=0;exitDy=0;shadow=1;" edge="1" parent="1" source="mx_iXF27oq-1so8VPrLC-6" target="mx_iXF27oq-1so8VPrLC-19">
          <mxGeometry relative="1" as="geometry" />
        </mxCell>
        <mxCell id="mx_iXF27oq-1so8VPrLC-15" value="餐补计算" style="rounded=0;whiteSpace=wrap;html=1;sketch=0;shadow=1;fillColor=#1ba1e2;fontColor=#ffffff;strokeColor=#006EAF;" vertex="1" parent="1">
          <mxGeometry x="-1360" y="-740" width="120" height="60" as="geometry" />
        </mxCell>
        <mxCell id="mx_iXF27oq-1so8VPrLC-19" value="发送餐补计算结果" style="rounded=0;whiteSpace=wrap;html=1;sketch=0;shadow=1;fillColor=#1ba1e2;fontColor=#ffffff;strokeColor=#006EAF;" vertex="1" parent="1">
          <mxGeometry x="-1030" y="-740" width="120" height="60" as="geometry" />
        </mxCell>
        <mxCell id="mx_iXF27oq-1so8VPrLC-22" value="" style="shape=cylinder3;whiteSpace=wrap;html=1;boundedLbl=1;backgroundOutline=1;size=15;rounded=0;shadow=1;" vertex="1" parent="1">
          <mxGeometry x="-1140" y="-670" width="50" height="50" as="geometry" />
        </mxCell>
      </root>
    </mxGraphModel>
  </diagram>
</mxfile>
